<svg xmlns="http://www.w3.org/2000/svg" xmlns:xlink="http://www.w3.org/1999/xlink" viewBox="0 0 502.59 507.38"><defs><style>.cls-1,.cls-2{fill:none;}.cls-2{stroke:#cae2ff;stroke-miterlimit:10;}.cls-3{fill:url(#linear-gradient);}.cls-4{clip-path:url(#clip-path);}.cls-5,.cls-6{opacity:0.3;}.cls-5{fill:url(#linear-gradient-2);}.cls-6{fill:url(#linear-gradient-3);}</style><linearGradient id="linear-gradient" x1="166.43" y1="418.86" x2="478.2" y2="96.29" gradientTransform="translate(-8.05 -54.41) rotate(-0.03)" gradientUnits="userSpaceOnUse"><stop offset="0" stop-color="#552ddc"></stop><stop offset="0.47" stop-color="#582bdc"></stop><stop offset="0.73" stop-color="#3d52ee"></stop><stop offset="1" stop-color="#2477ff"></stop></linearGradient><clipPath id="clip-path"><path class="cls-1" d="M275.41,471.18,230,433.79q-43.53-35.7-88.61-75.55-43.07-38.17-82.12-75.56c-3.18-2.14-50-34.92-47.57-87.45,1.62-34.61,23.72-58,29.12-63.74,18.57-19.65,39.89-27.18,48.59-30.26C139,83.61,228.54,50.69,343.92,9.8c51.52-18.25,90.53-7.42,117.8,17.82,39.62,36.66,28.83,102.69,26.82,114-21.29,122.83-40.28,216.52-51.25,262.86-2.15,9.09-7.06,29.13-22.65,48.61C408.31,461,388.4,485.89,353.1,492,311.74,499.24,280.57,475.29,275.41,471.18Z"></path></clipPath><linearGradient id="linear-gradient-2" x1="45.27" y1="211.37" x2="303.03" y2="211.37" gradientUnits="userSpaceOnUse"><stop offset="0" stop-color="#552ddc"></stop><stop offset="1" stop-color="#2674fe"></stop></linearGradient><linearGradient id="linear-gradient-3" x1="227.45" y1="362.5" x2="439.67" y2="362.5" xlink:href="#linear-gradient-2"></linearGradient></defs><g id="Layer_2" data-name="Layer 2"><g id="Layer_2-2" data-name="Layer 2"><path class="cls-2" d="M276.31,484.07l-47.52-38.44Q183.3,409,136.17,368q-45-39.24-85.85-77.66C47,288.13-2,254.44.6,200.45,2.29,164.87,25.4,140.82,31,134.94c19.41-20.2,41.7-27.94,50.79-31.11,51.92-18.11,145.49-51.94,266.11-94C401.79-8.9,442.57,2.24,471.08,28.18c41.41,37.68,30.14,105.54,28,117.19C476.85,271.62,457,367.92,445.53,415.54c-2.25,9.34-7.37,29.94-23.68,50-6.61,8.13-27.42,33.68-64.32,40C314.29,512.9,281.71,488.29,276.31,484.07Z"></path><path class="cls-3" d="M275.41,471.18,230,433.79q-43.53-35.7-88.61-75.55-43.07-38.17-82.12-75.56c-3.18-2.14-50-34.92-47.57-87.45,1.62-34.61,23.72-58,29.12-63.74,18.57-19.65,39.89-27.18,48.59-30.26C139,83.61,228.54,50.69,343.92,9.8c51.52-18.25,90.53-7.42,117.8,17.82,39.62,36.66,28.83,102.69,26.82,114-21.29,122.83-40.28,216.52-51.25,262.86-2.15,9.09-7.06,29.13-22.65,48.61C408.31,461,388.4,485.89,353.1,492,311.74,499.24,280.57,475.29,275.41,471.18Z"></path><g class="cls-4"><circle class="cls-5" cx="174.15" cy="211.37" r="128.88"></circle><ellipse class="cls-6" cx="333.56" cy="362.5" rx="106.11" ry="128.88"></ellipse></g></g></g></svg>