<svg xmlns="http://www.w3.org/2000/svg" version="1.1" xmlns:xlink="http://www.w3.org/1999/xlink" xmlns:svgjs="http://svgjs.dev/svgjs" width="2000" height="282" viewBox="0 0 2000 282"><g transform="matrix(1,0,0,1,-1.2121212121212466,-1.6084685630314368)"><svg viewBox="0 0 396 56" data-background-color="#444444" preserveAspectRatio="xMidYMid meet" height="282" width="2000" xmlns="http://www.w3.org/2000/svg" xmlns:xlink="http://www.w3.org/1999/xlink"><g id="tight-bounds" transform="matrix(1,0,0,1,0.2400000000000091,0.319412196914044)"><svg viewBox="0 0 395.52 55.36117560617193" height="55.36117560617193" width="395.52"><g><svg viewBox="0 0 395.52 55.36117560617193" height="55.36117560617193" width="395.52"><g><svg viewBox="0 0 395.52 55.36117560617193" height="55.36117560617193" width="395.52"><g id="textblocktransform"><svg viewBox="0 0 395.52 55.36117560617193" height="55.36117560617193" width="395.52" id="textblock"><g><svg viewBox="0 0 395.52 55.36117560617193" height="55.36117560617193" width="395.52"><g transform="matrix(1,0,0,1,0,0)"><svg width="395.52" viewBox="4 -36.01 332.25 46.51" height="55.36117560617193" data-palette-color="#ffffff"><path d="M4-36.01L8.79-36.01 8.79 0 4 0 4-36.01ZM39.28-21.19L39.28-4.81Q39.28-3.81 38.9-2.93 38.52-2.05 37.88-1.4 37.23-0.76 36.36-0.38 35.5 0 34.49 0L34.49 0 21.58 0Q20.6 0 19.72-0.38 18.85-0.76 18.2-1.4 17.55-2.05 17.17-2.93 16.79-3.81 16.79-4.81L16.79-4.81 16.79-21.19Q16.79-22.19 17.17-23.07 17.55-23.95 18.2-24.6 18.85-25.24 19.72-25.62 20.6-26 21.58-26L21.58-26 34.49-26Q35.5-26 36.36-25.62 37.23-25.24 37.88-24.6 38.52-23.95 38.9-23.07 39.28-22.19 39.28-21.19L39.28-21.19ZM34.49-21.19L21.58-21.19 21.58-4.81 34.49-4.81 34.49-21.19ZM64.47-21.19L52.07-21.19 52.07-4.81 64.47-4.81 64.47-9.2 69.28-9.2 69.28-4.81Q69.28-3.81 68.9-2.93 68.53-2.05 67.88-1.4 67.23-0.76 66.35-0.38 65.47 0 64.47 0L64.47 0 52.07 0Q51.09 0 50.21-0.38 49.34-0.76 48.69-1.4 48.04-2.05 47.66-2.93 47.29-3.81 47.29-4.81L47.29-4.81 47.29-21.19Q47.29-22.19 47.66-23.07 48.04-23.95 48.69-24.6 49.34-25.24 50.21-25.62 51.09-26 52.07-26L52.07-26 64.47-26Q65.47-26 66.35-25.62 67.23-25.24 67.88-24.6 68.53-23.95 68.9-23.07 69.28-22.19 69.28-21.19L69.28-21.19 69.28-16.8 64.47-16.8 64.47-21.19ZM77.29-4.81L77.29-11.35Q77.29-12.35 77.67-13.22 78.04-14.09 78.69-14.75 79.34-15.41 80.22-15.78 81.1-16.16 82.07-16.16L82.07-16.16 94.47-16.16 94.47-21.19 78.78-21.19 78.78-26 94.47-26Q95.48-26 96.35-25.62 97.23-25.24 97.88-24.6 98.53-23.95 98.91-23.07 99.28-22.19 99.28-21.19L99.28-21.19 99.28 0 94.47 0 94.47-4.39Q94.4-3.49 93.99-2.69 93.57-1.88 92.92-1.28 92.28-0.68 91.45-0.34 90.62 0 89.69 0L89.69 0 82.07 0Q81.1 0 80.22-0.38 79.34-0.76 78.69-1.4 78.04-2.05 77.67-2.93 77.29-3.81 77.29-4.81L77.29-4.81ZM82.07-11.35L82.07-4.81 94.47-4.81 94.47-11.35 82.07-11.35ZM107.29-36.01L112.07-36.01 112.07 0 107.29 0 107.29-36.01ZM120.08-36.01L124.87-36.01 124.87 0 120.08 0 120.08-36.01ZM139.41 10.5L134.63 10.5 140.07-2.34 129.87-26 134.92-26 142.51-8.11 150.11-26 155.16-26 139.41 10.5ZM159.65-4.81L175.86-4.81 175.86-10.84 164.46-10.84Q163.46-10.84 162.58-11.22 161.7-11.6 161.05-12.24 160.41-12.89 160.03-13.77 159.65-14.65 159.65-15.65L159.65-15.65 159.65-21.19Q159.65-22.19 160.03-23.07 160.41-23.95 161.05-24.6 161.7-25.24 162.58-25.62 163.46-26 164.46-26L164.46-26 179.67-26 179.67-21.19 164.46-21.19 164.46-15.65 175.86-15.65Q176.86-15.65 177.73-15.27 178.6-14.89 179.25-14.25 179.91-13.6 180.29-12.72 180.67-11.84 180.67-10.84L180.67-10.84 180.67-4.81Q180.67-3.81 180.29-2.93 179.91-2.05 179.25-1.4 178.6-0.76 177.73-0.38 176.86 0 175.86 0L175.86 0 159.65 0 159.65-4.81ZM186.65-21.19L186.65-26 193-26 193-34.01 197.81-34.01 197.81-26 206.35-26 206.35-21.19 197.81-21.19 197.81-4.81 206.35-4.81 206.35 0 197.81 0Q196.83 0 195.95-0.38 195.07-0.76 194.41-1.4 193.75-2.05 193.38-2.93 193-3.81 193-4.81L193-4.81 193-21.19 186.65-21.19ZM229.05-21.19L219.14-21.19 219.14 0 214.36 0 214.36-26 219.14-26 219.14-21.41Q219.19-22.36 219.58-23.21 219.97-24.05 220.62-24.67 221.27-25.29 222.12-25.65 222.98-26 223.95-26L223.95-26 229.05-26Q230.06-26 230.92-25.62 231.79-25.24 232.45-24.6 233.11-23.95 233.49-23.07 233.86-22.19 233.86-21.19L233.86-21.19 233.86-16.8 229.05-16.8 229.05-21.19ZM261.84-21.19L261.84-10.55 244.63-10.55 244.63-4.81 261.84-4.81 261.84 0 244.63 0Q243.65 0 242.77-0.38 241.89-0.76 241.25-1.4 240.6-2.05 240.22-2.93 239.84-3.81 239.84-4.81L239.84-4.81 239.84-21.19Q239.84-22.19 240.22-23.07 240.6-23.95 241.25-24.6 241.89-25.24 242.77-25.62 243.65-26 244.63-26L244.63-26 257.03-26Q258.03-26 258.91-25.62 259.79-25.24 260.44-24.6 261.08-23.95 261.46-23.07 261.84-22.19 261.84-21.19L261.84-21.19ZM257.03-21.19L244.63-21.19 244.63-15.36 257.03-15.36 257.03-21.19ZM269.85-4.81L269.85-11.35Q269.85-12.35 270.22-13.22 270.6-14.09 271.25-14.75 271.9-15.41 272.78-15.78 273.65-16.16 274.63-16.16L274.63-16.16 287.03-16.16 287.03-21.19 271.33-21.19 271.33-26 287.03-26Q288.03-26 288.91-25.62 289.79-25.24 290.44-24.6 291.09-23.95 291.46-23.07 291.84-22.19 291.84-21.19L291.84-21.19 291.84 0 287.03 0 287.03-4.39Q286.96-3.49 286.54-2.69 286.13-1.88 285.48-1.28 284.84-0.68 284.01-0.34 283.18 0 282.25 0L282.25 0 274.63 0Q273.65 0 272.78-0.38 271.9-0.76 271.25-1.4 270.6-2.05 270.22-2.93 269.85-3.81 269.85-4.81L269.85-4.81ZM274.63-11.35L274.63-4.81 287.03-4.81 287.03-11.35 274.63-11.35ZM331.44-21.19L320.45-21.19 320.45 0 315.64 0 315.64-21.19 304.63-21.19 304.63 0 299.85 0 299.85-26 304.63-26 304.63-21.41Q304.68-22.36 305.07-23.21 305.46-24.05 306.11-24.67 306.76-25.29 307.61-25.65 308.47-26 309.44-26L309.44-26 315.64-26Q316.6-26 317.45-25.65 318.3-25.29 318.96-24.67 319.62-24.05 320.03-23.21 320.43-22.36 320.45-21.41L320.45-21.41Q320.5-22.36 320.88-23.21 321.26-24.05 321.91-24.67 322.55-25.29 323.41-25.65 324.26-26 325.24-26L325.24-26 331.44-26Q332.44-26 333.32-25.62 334.2-25.24 334.85-24.6 335.49-23.95 335.87-23.07 336.25-22.19 336.25-21.19L336.25-21.19 336.25 0 331.44 0 331.44-21.19Z" opacity="1" transform="matrix(1,0,0,1,0,0)" fill="#000000" class="wordmark-text-0" data-fill-palette-color="primary" id="text-0"></path></svg></g></svg></g></svg></g></svg></g></svg></g><defs></defs></svg><rect width="395.52" height="55.36117560617193" fill="none" stroke="none" visibility="hidden"></rect></g></svg></g></svg>