<svg xmlns="http://www.w3.org/2000/svg" version="1.1" xmlns:xlink="http://www.w3.org/1999/xlink" xmlns:svgjs="http://svgjs.dev/svgjs" width="2000" height="464" viewBox="0 0 2000 464"><g transform="matrix(1,0,0,1,3.522310932588425,4.156512082659646)"><svg viewBox="0 0 396 92" data-background-color="#ffffff" preserveAspectRatio="xMidYMid meet" height="464" width="2000" xmlns="http://www.w3.org/2000/svg" xmlns:xlink="http://www.w3.org/1999/xlink"><g id="tight-bounds" transform="matrix(1,0,0,1,0.3930435919627939,0.27136023889468674)"><svg viewBox="0 0 395.52 91.45728284120591" height="91.45728284120591" width="395.52"><g><svg viewBox="0 0 555.6047761406202 128.4741685867152" height="91.45728284120591" width="395.52"><g transform="matrix(1,0,0,1,160.08477614062016,18.2160469867152)"><svg viewBox="0 0 395.52 92.0420746132848" height="92.0420746132848" width="395.52"><g id="textblocktransform"><svg viewBox="0 0 395.52 92.0420746132848" height="92.0420746132848" width="395.52" id="textblock"><g><svg viewBox="0 0 395.52 92.0420746132848" height="92.0420746132848" width="395.52"><g transform="matrix(1,0,0,1,0,0)"><svg width="395.52" viewBox="-0.5 -35.9 221.77 51.15" height="92.0420746132848" data-palette-color="#000000"><g class="wordmark-text-0" data-fill-palette-color="primary" id="text-0"><path d="M12.78-21.6Q14.9-22.65 17-22.65 19.1-22.65 19.1-18.3L19.1-18.3Q19.1-15.1 17.93-11.8 16.75-8.5 15-6L15-6Q11.4-0.75 8.5 1L8.5 1Q7.8 1.4 7.45 1.4 7.1 1.4 6.73 0.65 6.35-0.1 5.58-2.65 4.8-5.2 4.3-7.2L4.3-7.2 3.85-9.25Q2.85-13.65 1.9-16.28 0.95-18.9 0.5-19.3L0.5-19.3 0-19.75Q-0.5-20-0.5-20.35L-0.5-20.35-0.25-20.8Q0.4-21.4 1.93-22.03 3.45-22.65 5.3-22.65L5.3-22.65Q6.15-22.65 6.35-21.7L6.35-21.7Q7.1-19.4 7.65-16.3 8.2-13.2 9.13-9.3 10.05-5.4 10.65-5.35L10.65-5.35Q10.95-5.35 11.33-5.8 11.7-6.25 12.23-7 12.75-7.75 13.53-9.9 14.3-12.05 14.3-13.58 14.3-15.1 14.18-15.93 14.05-16.75 13.3-17.85 12.55-18.95 11.6-19.13 10.65-19.3 10.65-19.75L10.65-19.75Q10.65-20.55 12.78-21.6ZM26-26.75L26-26.75 24.8-26.8Q23.45-26.8 23.05-26.15L23.05-26.15Q22.95-26 22.8-26L22.8-26Q22.15-26 22.15-28.23 22.15-30.45 22.82-31.05 23.5-31.65 25.17-31.65 26.85-31.65 27.45-31.08 28.05-30.5 28.05-29.15 28.05-27.8 27.6-27.28 27.15-26.75 26-26.75ZM22-1.5L22-1.5 22.55-13.15Q22.55-17.3 21.6-18.8L21.6-18.8Q21.3-19.3 20.9-19.55L20.9-19.55Q20.6-19.65 20.6-19.95L20.6-19.95Q20.6-20.85 23.15-21.7 25.7-22.55 26.87-22.55 28.05-22.55 28.1-21.95L28.1-21.95Q28.1-20.95 27.82-16.28 27.55-11.6 27.55-6.45 27.55-1.3 28.15-0.05L28.15-0.05Q28.3 0.2 28.3 0.45L28.3 0.45Q28.3 1.1 26.4 1.1 24.5 1.1 22.5 0.1L22.5 0.1Q22-0.15 22-1.5ZM41.34-22.45L41.34-22.45Q42.24-22.45 42.97-22.23 43.7-22 43.74-22L43.74-22 44.05-22.25 43.84-27.7Q43.74-29.1 43.24-30.1 42.74-31.1 42.34-31.4L42.34-31.4 41.89-31.65Q41.59-31.85 41.59-32.1L41.59-32.1Q41.59-32.85 43.92-33.85 46.25-34.85 47.55-34.85 48.84-34.85 48.95-34.3L48.95-34.3Q49.2-32.6 49.2-27.83 49.2-23.05 48.97-18.45 48.75-13.85 48.75-8.03 48.75-2.2 49.5-0.7L49.5-0.7Q49.7-0.35 49.7-0.05L49.7-0.05Q49.7 0.7 47.55 0.7L47.55 0.7Q43.45 0.7 43.45-1.25L43.45-1.25Q43.34-2.05 43.34-3.73 43.34-5.4 43.67-9.98 43.99-14.55 43.99-17.03 43.99-19.5 41.52-19.5 39.05-19.5 37.74-16.6 36.45-13.7 36.45-10.8L36.45-10.8Q36.45-4.65 39.55-4.65L39.55-4.65Q39.99-4.65 40.42-4.83 40.84-5 40.95-5L40.95-5Q41.34-5 41.57-4.5 41.8-4 41.8-3.5L41.8-3.5Q41.8-1.8 40.45-0.63 39.09 0.55 37.14 0.55L37.14 0.55Q34.14 0.55 32.62-2.08 31.09-4.7 31.09-8.6L31.09-8.6Q31.09-13.55 33.45-17.8L33.45-17.8Q34.64-19.9 36.7-21.18 38.74-22.45 41.34-22.45ZM56.69-12.7L56.69-12.7 56.74-11.45Q56.74-11.15 57.14-11.15L57.14-11.15Q58.74-11.3 59.94-11.98 61.14-12.65 61.74-13.5L61.74-13.5Q62.94-15.35 63.04-16.7L63.04-16.7 63.09-17.3Q63.09-20 60.94-20L60.94-20Q59.34-20 58.34-18.6L58.34-18.6Q56.69-16.4 56.69-12.7ZM67.59-6.05L67.59-6.05Q67.59-4.15 66.82-2.73 66.04-1.3 65.07-0.63 64.09 0.05 62.79 0.45L62.79 0.45Q61.14 0.95 59.64 0.95L59.64 0.95Q55.44 0.95 53.44-2.2 51.44-5.35 51.44-10.23 51.44-15.1 53.92-18.9 56.39-22.7 61.34-22.7L61.34-22.7Q65.84-22.7 67.44-19.55L67.44-19.55Q68.09-18.35 68.09-17.28 68.09-16.2 67.99-15.58 67.89-14.95 67.29-13.7 66.69-12.45 65.69-11.45 64.69-10.45 62.54-9.55 60.39-8.65 57.49-8.35L57.49-8.35Q57.09-8.35 57.09-8L57.09-8Q57.09-7.55 57.42-6.68 57.74-5.8 58.14-5.2L58.14-5.2Q59.24-3.8 61.39-3.8L61.39-3.8Q63.54-3.8 65.04-5.2L65.04-5.2Q65.84-5.95 66.34-7.05L66.34-7.05Q66.54-7.45 66.87-7.45 67.19-7.45 67.39-6.9 67.59-6.35 67.59-6.05ZM75.24-18.85L75.24-18.85Q73.94-18.8 73.37-18.78 72.79-18.75 72.79-19.05 72.79-19.35 73.09-19.65L73.09-19.65Q76.29-22.6 83.89-22.6L83.89-22.6Q86.49-22.6 87.99-22.15L87.99-22.15 88.49-22Q89.09-21.75 89.09-21.45L89.09-21.45Q89.09-21.2 88.74-21.05L88.74-21.05Q87.39-20.65 86.14-19.78 84.89-18.9 84.89-18.55L84.89-18.55 85.19-18.2Q86.79-17.3 87.67-15.35 88.54-13.4 88.64-11.9L88.64-11.9 88.74-10.35Q88.74-5.4 85.99-2.2 83.24 1 78.49 1L78.49 1Q76.09 1 74.34 0.15 72.59-0.7 71.77-1.78 70.94-2.85 70.44-4.2L70.44-4.2Q69.84-6.05 69.84-8.03 69.84-10 70.52-12 71.19-14 72.06-14.95 72.94-15.9 74.04-16.5L74.04-16.5Q75.44-17.25 76.29-17.25 77.14-17.25 77.14-16.9L77.14-16.9 76.84-16.4Q75.74-15.1 75.27-13 74.79-10.9 74.79-9.28 74.79-7.65 75.19-6.05 75.59-4.45 76.09-3.68 76.59-2.9 77.24-2.5L77.24-2.5Q78.19-1.9 79.24-1.9 80.29-1.9 81.29-2.73 82.29-3.55 82.74-4.9L82.74-4.9Q83.64-7.4 83.64-10.05L83.64-10.05Q83.64-14.25 81.52-16.55 79.39-18.85 75.24-18.85ZM113.04-6.2L113.04-6.2Q113.04-2.7 110.81-1 108.59 0.7 104.59 0.7L104.59 0.7Q98.19 0.7 95.16-3.55 92.14-7.8 92.14-14.65L92.14-14.65Q92.14-15.75 92.24-17.85L92.24-17.85 89.44-17.85Q89.04-17.85 89.04-18.15L89.04-18.15Q89.04-19 89.89-20.2 90.74-21.4 91.74-21.4L91.74-21.4 92.69-21.4Q93.34-25 94.81-27.75 96.29-30.5 97.91-32 99.54-33.5 101.49-34.4L101.49-34.4Q104.59-35.9 107.99-35.9 111.39-35.9 112.24-34.8L112.24-34.8Q112.64-34.25 112.64-32.77 112.64-31.3 112.29-31.3L112.29-31.3Q112.24-31.3 111.84-31.5L111.84-31.5Q110.54-32.1 108.59-32.1L108.59-32.1Q104.34-32.1 101.96-29.1 99.59-26.1 98.79-21.4L98.79-21.4Q102.59-21.45 109.09-21.45L109.09-21.45Q109.59-21.45 109.59-21.1L109.59-21.1Q109.59-20.3 108.79-19.07 107.99-17.85 106.99-17.85L106.99-17.85 98.39-17.85Q98.34-17.25 98.34-15.23 98.34-13.2 99.06-10.98 99.79-8.75 101.76-7.2 103.74-5.65 106.89-5.65 110.04-5.65 112.19-7.05L112.19-7.05Q112.44-7.25 112.64-7.25L112.64-7.25Q113.04-7.25 113.04-6.2ZM114.74-4.9L114.74-4.9 115.74-4.75Q118.69-4.75 121.64-9.8L121.64-9.8Q121.79-10.05 122.04-10.4L122.04-10.4Q119.84-14.45 118.21-16.85 116.59-19.25 116.04-19.6L116.04-19.6 115.54-20Q114.84-20.3 114.84-20.75L114.84-20.75Q114.84-21.4 116.66-22.15 118.49-22.9 120.09-23L120.09-23Q120.94-23.05 121.69-21.75L121.69-21.75Q123.09-19.7 125.09-15.5L125.09-15.5 125.09-15.4Q127.44-19.4 128.09-21.05L128.09-21.05Q128.09-21.8 129.34-22.2 130.59-22.6 132.44-22.6 134.29-22.6 134.29-22L134.29-22Q134.29-21.75 133.84-21.45L133.84-21.45Q133.54-21.3 132.96-20.85 132.39-20.4 130.54-18.23 128.69-16.05 126.79-12.9L126.79-12.9Q126.69-12.75 126.64-12.6L126.64-12.6Q129.54-7.35 130.09-6.58 130.64-5.8 130.96-5.3 131.29-4.8 132.26-3.85 133.24-2.9 134.11-2.65 134.99-2.4 134.99-1.95L134.99-1.95Q134.99-1.25 133.19-0.28 131.39 0.7 129.84 0.7L129.84 0.7Q128.74 0.7 128.14-0.05L128.14-0.05Q127.09-1.3 123.54-7.5L123.54-7.5Q120.44-2.35 119.84-1.53 119.24-0.7 118.34-0.05 117.44 0.6 116.36 0.6 115.29 0.6 114.61-0.1 113.94-0.8 113.84-1.5L113.84-1.5 113.74-2.2Q113.74-4.9 114.74-4.9ZM136.33-7.65L136.33-7.65Q136.43-12.7 136.43-15.95 136.43-19.2 135.98-22.15L135.98-22.15Q135.98-22.65 136.98-22.65 137.98-22.65 138.71-22.4 139.43-22.15 139.73-21.85L139.73-21.85Q140.53-21.05 140.66-21.05 140.78-21.05 141.43-21.5L141.43-21.5Q143.38-22.75 145.76-22.75 148.13-22.75 149.91-21.55 151.68-20.35 152.43-18.4L152.43-18.4Q153.78-15.05 153.78-11.3L153.78-11.3Q153.78-7.6 152.43-3.9L152.43-3.9Q151.68-1.9 150.23-0.63 148.78 0.65 146.83 0.65L146.83 0.65Q142.98 0.65 142.98-3.8L142.98-3.8Q142.98-5 143.48-5L143.48-5Q143.58-5 144.06-4.78 144.53-4.55 144.98-4.55L144.98-4.55Q148.53-4.55 148.53-12.08 148.53-19.6 144.73-19.6L144.73-19.6Q143.68-19.6 142.96-19.13 142.23-18.65 142.03-18.2L142.03-18.2 141.83-17.7Q141.13-13.2 141.13-0.35L141.13-0.35Q141.13 5.45 141.36 7.98 141.58 10.5 141.58 11 141.58 11.5 141.28 11.9L141.28 11.9Q140.28 13.2 138.58 14.23 136.88 15.25 135.58 15.25L135.58 15.25Q135.08 15.25 135.08 14.6L135.08 14.6Q135.88 9.55 136.33-7.65ZM162.98-28.6L162.98-28.6 162.68-10.25Q162.68-1.65 163.23 0.05L163.23 0.05Q163.38 0.35 163.38 0.65L163.38 0.65Q163.38 1.25 161.93 1.25 160.48 1.25 158.71 0.53 156.93-0.2 156.93-1.35L156.93-1.35Q157.93-8.35 157.93-20.05L157.93-20.05 157.73-27.7Q157.63-29.1 157.16-30.1 156.68-31.1 156.23-31.4L156.23-31.4 155.83-31.65Q155.48-31.85 155.48-32.1L155.48-32.1Q155.48-32.8 157.66-33.83 159.83-34.85 161.88-34.85L161.88-34.85Q162.68-34.85 162.78-34.3L162.78-34.3Q162.98-33 162.98-28.6ZM171.28-18.85L171.28-18.85Q169.98-18.8 169.4-18.78 168.83-18.75 168.83-19.05 168.83-19.35 169.13-19.65L169.13-19.65Q172.33-22.6 179.93-22.6L179.93-22.6Q182.53-22.6 184.03-22.15L184.03-22.15 184.53-22Q185.13-21.75 185.13-21.45L185.13-21.45Q185.13-21.2 184.78-21.05L184.78-21.05Q183.43-20.65 182.18-19.78 180.93-18.9 180.93-18.55L180.93-18.55 181.23-18.2Q182.83-17.3 183.7-15.35 184.58-13.4 184.68-11.9L184.68-11.9 184.78-10.35Q184.78-5.4 182.03-2.2 179.28 1 174.53 1L174.53 1Q172.13 1 170.38 0.15 168.63-0.7 167.8-1.78 166.98-2.85 166.48-4.2L166.48-4.2Q165.88-6.05 165.88-8.03 165.88-10 166.55-12 167.23-14 168.1-14.95 168.98-15.9 170.08-16.5L170.08-16.5Q171.48-17.25 172.33-17.25 173.18-17.25 173.18-16.9L173.18-16.9 172.88-16.4Q171.78-15.1 171.3-13 170.83-10.9 170.83-9.28 170.83-7.65 171.23-6.05 171.63-4.45 172.13-3.68 172.63-2.9 173.28-2.5L173.28-2.5Q174.23-1.9 175.28-1.9 176.33-1.9 177.33-2.73 178.33-3.55 178.78-4.9L178.78-4.9Q179.68-7.4 179.68-10.05L179.68-10.05Q179.68-14.25 177.55-16.55 175.43-18.85 171.28-18.85ZM202.88-17.2L202.63-13.4 202.83-11.65Q202.83-10.7 201.03-10.7L201.03-10.7Q197.38-10.7 197.38-13.45L197.38-13.45Q197.38-14.1 197.73-15.25 198.08-16.4 198.08-17.25 198.08-18.1 197.58-18.73 197.08-19.35 196.13-19.35 195.18-19.35 194.5-18.68 193.83-18 193.68-17.3L193.68-17.3 193.48-16.6Q193.18-15.05 193.18-11.43 193.18-7.8 193.28-5.73 193.38-3.65 193.48-2.88 193.58-2.1 193.58-1.95L193.58-1.95Q193.58-0.7 192.03 0.08 190.48 0.85 188.93 0.85 187.38 0.85 187.38 0.2L187.38 0.2 187.63-1.35Q188.33-5.7 188.33-12.7 188.33-19.7 187.83-22.2L187.83-22.2Q187.83-22.8 188.88-22.8L188.88-22.8Q191.58-22.8 192.48-20.95L192.48-20.95Q192.53-20.75 192.65-20.75 192.78-20.75 193.33-21.2L193.33-21.2Q194.98-22.55 197.23-22.55L197.23-22.55Q198.63-22.55 200.03-22L200.03-22Q202.88-20.85 202.88-17.2L202.88-17.2ZM209.87-12.7L209.87-12.7 209.92-11.45Q209.92-11.15 210.32-11.15L210.32-11.15Q211.92-11.3 213.12-11.98 214.32-12.65 214.92-13.5L214.92-13.5Q216.12-15.35 216.22-16.7L216.22-16.7 216.27-17.3Q216.27-20 214.12-20L214.12-20Q212.52-20 211.52-18.6L211.52-18.6Q209.87-16.4 209.87-12.7ZM220.77-6.05L220.77-6.05Q220.77-4.15 220-2.73 219.22-1.3 218.25-0.63 217.27 0.05 215.97 0.45L215.97 0.45Q214.32 0.95 212.82 0.95L212.82 0.95Q208.62 0.95 206.62-2.2 204.62-5.35 204.62-10.23 204.62-15.1 207.1-18.9 209.57-22.7 214.52-22.7L214.52-22.7Q219.02-22.7 220.62-19.55L220.62-19.55Q221.27-18.35 221.27-17.28 221.27-16.2 221.17-15.58 221.07-14.95 220.47-13.7 219.87-12.45 218.87-11.45 217.87-10.45 215.72-9.55 213.57-8.65 210.67-8.35L210.67-8.35Q210.27-8.35 210.27-8L210.27-8Q210.27-7.55 210.6-6.68 210.92-5.8 211.32-5.2L211.32-5.2Q212.42-3.8 214.57-3.8L214.57-3.8Q216.72-3.8 218.22-5.2L218.22-5.2Q219.02-5.95 219.52-7.05L219.52-7.05Q219.72-7.45 220.05-7.45 220.37-7.45 220.57-6.9 220.77-6.35 220.77-6.05Z" fill="#ffffff" data-fill-palette-color="primary"></path></g></svg></g></svg></g></svg></g></svg></g><g><svg viewBox="0 0 138.35585133421435 128.4741685867152" height="128.4741685867152" width="138.35585133421435"><g><svg xmlns="http://www.w3.org/2000/svg" xmlns:xlink="http://www.w3.org/1999/xlink" version="1.0" x="0" y="0" viewBox="5.353999584418057 9.213999584288374 90.00000083129358 83.5720005196828" enable-background="new 0 0 100 100" xml:space="preserve" height="128.4741685867152" width="138.35585133421435" class="icon-icon-0" data-fill-palette-color="accent" id="icon-0"><path d="M90.532 9.214H10.175A4.82 4.82 0 0 0 5.354 14.036V87.964A4.82 4.82 0 0 0 10.174 92.786H90.533A4.82 4.82 0 0 0 95.354 87.964V14.036A4.82 4.82 0 0 0 90.532 9.214M13.39 22.071A3.214 3.214 0 0 1 16.604 18.857H84.104A3.214 3.214 0 0 1 87.318 22.071V71.893A3.214 3.214 0 0 1 84.104 75.107H16.604A3.214 3.214 0 0 1 13.389 71.893zM16.604 87.964A4.822 4.822 0 1 1 16.604 78.321 4.822 4.822 0 0 1 16.604 87.964M87.453 83.143H66.058V83.946A2.411 2.411 0 0 1 61.236 83.946V83.143H27.888V81.536H61.236V80.732A2.411 2.411 0 0 1 66.058 80.732V81.536H87.453z" fill="#ffffff" data-fill-palette-color="accent"></path><path d="M50.354 63.857C59.23 63.857 66.424 56.661 66.424 47.786S59.232 31.714 50.355 31.714 34.282 38.91 34.282 47.786 41.477 63.857 50.354 63.857M45.532 39.75L59.45 47.786 45.532 55.82z" fill="#ffffff" data-fill-palette-color="accent"></path><path d="M16.604 79.929A3.22 3.22 0 0 0 13.389 83.143 3.22 3.22 0 0 0 16.604 86.357 3.22 3.22 0 0 0 19.818 83.143 3.22 3.22 0 0 0 16.604 79.929" fill="#ffffff" data-fill-palette-color="accent"></path></svg></g></svg></g></svg></g><defs></defs></svg><rect width="395.52" height="91.45728284120591" fill="none" stroke="none" visibility="hidden"></rect></g></svg></g></svg>